<svg width="91" height="32" viewBox="0 0 91 32" fill="none" xmlns="http://www.w3.org/2000/svg">
<path fill-rule="evenodd" clip-rule="evenodd" d="M24.8889 22.7624H17.0071V22.3058C17.0071 20.3031 17.7917 18.9872 19.7156 17.7251C20.7115 17.0603 21.3242 16.6465 21.5714 16.4811C21.8293 16.2841 22.0479 16.0403 22.2163 15.762C22.3879 15.4636 22.4778 15.1252 22.4778 14.7804C22.5219 14.0113 21.9357 13.3519 21.1694 13.3081C21.1279 13.3055 21.0863 13.3052 21.0447 13.3063C19.995 13.3063 19.4003 14.0254 19.368 15.4096H16.9784C17.0106 13.8999 17.3617 13.0258 18.2359 12.3067C19.0205 11.6868 20 11.3683 20.9982 11.4078C23.395 11.4078 24.914 12.6734 24.914 14.6725C24.914 16.2546 24.1115 17.3408 21.9261 18.7646C20.2637 19.8432 20.0523 20.0442 19.8804 20.8176H24.8961L24.8889 22.7624Z" fill="#9C9EA1"/>
<path fill-rule="evenodd" clip-rule="evenodd" d="M28.2029 19.322C28.2029 20.4007 28.9195 21.0946 30.0193 21.0946C31.0511 21.0946 31.7175 20.5154 31.7175 19.6204C31.7175 18.5418 31.0512 18.1283 29.3386 18.1283H29.0771V16.2151H29.3207C30.9652 16.2151 31.6136 15.8128 31.6136 14.7773C31.6036 13.9712 30.9447 13.3254 30.1415 13.3355C30.1125 13.3359 30.0838 13.3369 30.0552 13.3391C28.9804 13.3391 28.3785 13.9899 28.3785 15.18H25.9637C26.0354 13.7418 26.365 12.9867 27.2392 12.3036C28.0714 11.6841 29.0918 11.3727 30.1268 11.4227C32.4699 11.4227 34.0069 12.6344 34.0069 14.4968C34.052 15.7635 33.1696 16.8735 31.9289 17.1108C32.2413 17.1622 32.5423 17.2693 32.8174 17.4268C33.6798 17.8745 34.2 18.7881 34.1466 19.7607C34.1466 21.7634 32.5738 22.9966 30.091 22.9966C27.3825 22.9966 25.824 21.5764 25.824 19.0416H28.2387C28.2208 19.1638 28.2029 19.2465 28.2029 19.322Z" fill="#9C9EA1"/>
<path fill-rule="evenodd" clip-rule="evenodd" d="M40.1619 18.9728L39.3772 19.0954C37.9083 19.322 37.328 19.656 37.328 20.3032C37.328 20.9504 37.8546 21.3063 38.607 21.3063C39.8143 21.3063 40.4449 20.5153 40.4771 18.9193L40.1619 18.9728ZM39.0441 14.0398C40.2693 14.0398 41.2474 14.3742 41.878 15.0214C42.5085 15.6689 42.6984 16.3193 42.6984 17.8295C42.6805 17.9517 42.6805 18.3544 42.6626 19.0591V19.8501C42.6332 20.8263 42.7102 21.8032 42.8919 22.7625H40.9142C40.8494 22.4508 40.8207 22.1322 40.8282 21.8133V21.4537C40.2156 22.5036 39.3593 22.9423 37.9621 22.9423C36.1708 22.9423 34.9025 21.8888 34.9025 20.3826C34.8993 19.7692 35.1314 19.1781 35.5509 18.7319C36.0382 18.2214 36.6508 17.9593 37.8045 17.7327C38.684 17.5673 39.5711 17.4473 40.4628 17.3732C40.4628 16.1791 40.0436 15.6722 39.0656 15.6722C38.0875 15.6722 37.6647 16.0928 37.611 16.9198H35.2178C35.3539 15.1296 36.7691 14.0398 39.0441 14.0398Z" fill="#9C9EA1"/>
<path fill-rule="evenodd" clip-rule="evenodd" d="M46.4783 15.338C47.0407 14.5359 47.9658 14.0688 48.9431 14.094C50.1645 14.094 51.2145 14.7412 51.5836 15.7407C51.791 16.2657 51.8272 16.6899 51.8272 17.952V22.7624H49.5017V17.8081C49.5017 16.4383 49.1147 15.8989 48.1549 15.8989C47.0801 15.8989 46.6001 16.6863 46.6001 18.3867V22.7768H44.271V14.2845H46.4783V15.338Z" fill="#9C9EA1"/>
<path fill-rule="evenodd" clip-rule="evenodd" d="M57.022 21.0441C58.0968 21.0441 58.8133 20.0445 58.8133 18.5272C58.8133 17.0096 58.1469 16.0355 57.061 16.0355C55.9758 16.0355 55.2951 17.0207 55.2951 18.552C55.2951 20.0841 56.0045 21.0441 57.022 21.0441ZM61.0955 22.7624H58.8921V21.637C58.373 22.4963 57.4272 23.0011 56.4272 22.9533C54.3779 22.9533 52.9449 21.1555 52.9449 18.5488C52.9449 15.942 54.3099 14.094 56.3198 14.094C57.459 14.094 58.2114 14.4787 58.7703 15.356V11.0737H61.0955V22.7624Z" fill="#9C9EA1"/>
<path fill-rule="evenodd" clip-rule="evenodd" d="M76.028 22.7625H73.7028V13.3534L70.8367 22.7625H68.3002L65.4161 13.3534V22.7625H63.0909V11.0735H66.9893L69.6652 19.9188L72.2913 11.0735H76.0137L76.028 22.7625Z" fill="#9C9EA1"/>
<path fill-rule="evenodd" clip-rule="evenodd" d="M83.5338 17.5601C83.5564 16.6234 82.818 15.845 81.8843 15.8224C81.8453 15.8213 81.8066 15.8216 81.7675 15.8234C80.7536 15.8234 80.1227 16.4203 79.9332 17.5601H83.5338ZM81.8535 22.9533C79.231 22.9533 77.5543 21.2167 77.5543 18.4809C77.5543 15.8486 79.2525 14.094 81.789 14.094C84.3255 14.094 85.9485 15.8486 85.9485 18.6894V19.2356H79.9654C80.0188 20.4616 80.7353 21.1664 81.9252 21.1664C82.7098 21.1664 83.2364 20.8323 83.4621 20.1632H85.9485C85.4004 21.9897 83.9673 22.9533 81.8535 22.9533Z" fill="#9C9EA1"/>
<path fill-rule="evenodd" clip-rule="evenodd" d="M89.1012 15.3417C88.9995 15.3089 88.8927 15.2942 88.786 15.2985H88.6606V15.899H88.8716C88.9762 15.9047 89.0797 15.8785 89.169 15.8235C89.2449 15.7648 89.2858 15.6714 89.2768 15.5754C89.2786 15.4664 89.2062 15.3697 89.1012 15.3417ZM88.1124 17.01V14.9318H89.1156C89.2575 14.9404 89.3961 14.9771 89.524 15.0396C89.7049 15.1364 89.8124 15.3305 89.7999 15.5358C89.8088 15.6714 89.7558 15.8033 89.6566 15.8954C89.553 15.9759 89.4287 16.0244 89.2983 16.0356C89.404 16.0528 89.5039 16.0931 89.5921 16.1542C89.7232 16.2722 89.7913 16.4455 89.7748 16.622V16.8086C89.7734 16.8291 89.7734 16.8493 89.7748 16.8697C89.7716 16.8888 89.7716 16.9082 89.7748 16.9273V16.9884H89.2553C89.2378 16.8931 89.227 16.7975 89.2231 16.7008C89.2234 16.6145 89.2127 16.5289 89.1908 16.4455C89.1643 16.3746 89.1081 16.3196 89.0364 16.2945C88.978 16.2733 88.916 16.2625 88.854 16.2625H88.7322H88.6606V16.9816L88.1124 17.01ZM87.8366 14.8814C87.2089 15.461 87.168 16.4415 87.7459 17.0715C88.3231 17.701 89.3001 17.7417 89.9278 17.1621C89.9593 17.1329 89.9894 17.1024 90.0184 17.0715C90.3122 16.7799 90.4748 16.3818 90.4695 15.9673C90.4713 15.5621 90.3097 15.173 90.0216 14.8886C89.442 14.2831 88.4825 14.2637 87.8792 14.8458C87.8649 14.8599 87.8505 14.8742 87.8366 14.8886V14.8814ZM90.2405 17.312C89.5068 18.039 88.3249 18.0311 87.6008 17.2951C87.2533 16.9413 87.0598 16.4638 87.0627 15.9673C87.0516 15.4484 87.2648 14.9505 87.6463 14.601C87.9924 14.2691 88.4539 14.0857 88.9329 14.0904C89.9675 14.0854 90.8105 14.9231 90.8156 15.9619C90.8181 16.4764 90.6103 16.9697 90.2405 17.3267V17.312Z" fill="#9C9EA1"/>
<path fill-rule="evenodd" clip-rule="evenodd" d="M0.268705 23.3669C-0.359338 24.63 0.151194 26.1645 1.40979 26.7952C2.66838 27.4255 4.19747 26.9128 4.82587 25.65L5.8541 23.5858L3.73315 16.4236L0.268705 23.3669Z" fill="#92C746"/>
<path fill-rule="evenodd" clip-rule="evenodd" d="M14.6244 0.269128C13.3669 -0.360086 11.8393 0.151555 11.2101 1.4125L7.05782 9.73969L9.18234 16.9019L15.7601 3.69565C16.3896 2.43506 15.8816 0.901218 14.6255 0.269488C14.6251 0.269488 14.6248 0.269128 14.6244 0.269128Z" fill="#92C746"/>
<path fill-rule="evenodd" clip-rule="evenodd" d="M7.75299 30.0328C8.20906 31.366 9.65611 32.0758 10.9849 31.6177C12.2299 31.1888 12.9429 29.8771 12.629 28.5946L9.18248 16.938L5.85059 23.622L7.75299 30.0328Z" fill="#D50F67"/>
<path fill-rule="evenodd" clip-rule="evenodd" d="M5.66426 5.02601C5.20782 3.69279 3.76078 2.98304 2.43232 3.44075C1.18734 3.87005 0.47439 5.18133 0.788233 6.46421L3.72961 16.4094L7.05792 9.72533L5.66426 5.02601Z" fill="#D50F67"/>
<path fill-rule="evenodd" clip-rule="evenodd" d="M3.72964 16.4238L5.85059 23.586L9.1789 16.902L7.05795 9.73975L3.72964 16.4238Z" fill="#3BA510"/>
</svg>
