<svg width="104" height="30" viewBox="0 0 104 30" fill="none" xmlns="http://www.w3.org/2000/svg">
<g id="Verily_Logotype">
<path id="Vector" d="M16.2784 19.9267C18.9672 17.3219 24.484 11.4353 27.163 8.59909C27.6949 8.03628 28.7276 8.40091 28.7276 9.16348V21.4549H1.63477V8.58164L14.7172 8.54835V19.3005C14.7172 20.09 15.7024 20.4864 16.2784 19.9283V19.9267Z" fill="#087A6A"/>
<path id="Vector_2" d="M88.2662 18.6535C88.1287 18.6631 87.9978 18.6631 87.9209 18.6631C86.7148 18.6631 86.4627 18.1193 86.4627 17.2505V1.73584H83.0129V18.0099C83.0129 20.4545 84.4156 21.8132 86.9669 21.8132C87.4431 21.8132 87.8997 21.734 88.2662 21.6436V18.6519V18.6535Z" fill="#1A1A1A"/>
<path id="Vector_3" d="M58.4549 18.7976C59.6611 18.7976 60.9506 18.3632 61.7362 17.358L64.0927 19.178C62.8866 20.8364 60.7559 21.8129 58.4844 21.8129C54.4732 21.8129 51.3884 18.9053 51.3884 15.1289C51.3884 11.3525 54.0526 8.30859 58.288 8.30859C62.2141 8.30859 64.9912 11.4065 64.9912 15.0465C64.9912 15.4 64.9634 15.7806 64.9061 16.1055H54.7531C55.1459 17.6814 56.4632 18.796 58.4549 18.796V18.7976ZM58.2585 11.3509C56.6597 11.3509 55.37 12.2753 54.8644 13.6608H61.5119C61.3156 12.3561 59.913 11.3509 58.2585 11.3509Z" fill="#1A1A1A"/>
<path id="Vector_4" d="M47.9045 8.55432L44.4825 17.304L41.0899 8.55432H37.3308L42.6872 21.4594H46.3056L51.662 8.55432H47.9045Z" fill="#1A1A1A"/>
<path id="Vector_5" d="M66.7244 8.55444H70.1742V9.50568C71.4637 8.58139 72.7272 8.3103 75.3063 8.3103V11.5159C70.9025 11.5159 70.1742 12.7113 70.1742 14.9388V21.4596H66.7244V8.55444Z" fill="#1A1A1A"/>
<path id="Vector_6" d="M76.8252 4.28961C76.8252 3.09423 77.7792 2.1969 79.0133 2.1969C80.2472 2.1969 81.1735 3.09423 81.1735 4.28961C81.1735 5.48499 80.2472 6.40928 79.0133 6.40928C77.7792 6.40928 76.8252 5.48499 76.8252 4.28961ZM77.2736 8.5543H80.7234V21.4594H77.2736V8.5543Z" fill="#1A1A1A"/>
<path id="Vector_7" d="M93.8417 21.8129L88.3169 8.55432H92.1316L95.4684 17.4659L98.7775 8.55432H102.172L94.7959 28.3336H91.4311L93.8417 21.8129Z" fill="#1A1A1A"/>
</g>
</svg>
